<?xml version="1.0" encoding="UTF-8" standalone="no"?>
<!-- Created with Inkscape (http://www.inkscape.org/) -->

<svg
   width="512"
   height="512"
   viewBox="0 0 135.46667 135.46666"
   version="1.1"
   id="svg1"
   inkscape:version="1.3 (0e150ed6c4, 2023-07-21)"
   sodipodi:docname="Spin.svg"
   inkscape:export-filename="Spin.png"
   inkscape:export-xdpi="96"
   inkscape:export-ydpi="96"
   xmlns:inkscape="http://www.inkscape.org/namespaces/inkscape"
   xmlns:sodipodi="http://sodipodi.sourceforge.net/DTD/sodipodi-0.dtd"
   xmlns="http://www.w3.org/2000/svg"
   xmlns:svg="http://www.w3.org/2000/svg">
  <sodipodi:namedview
     id="namedview1"
     pagecolor="#505050"
     bordercolor="#eeeeee"
     borderopacity="1"
     inkscape:showpageshadow="0"
     inkscape:pageopacity="0"
     inkscape:pagecheckerboard="0"
     inkscape:deskcolor="#505050"
     inkscape:document-units="px"
     inkscape:zoom="1.0242632"
     inkscape:cx="204.04912"
     inkscape:cy="277.76064"
     inkscape:window-width="1920"
     inkscape:window-height="1009"
     inkscape:window-x="1912"
     inkscape:window-y="-8"
     inkscape:window-maximized="1"
     inkscape:current-layer="layer1" />
  <defs
     id="defs1" />
  <g
     inkscape:label="Camada 1"
     inkscape:groupmode="layer"
     id="layer1"
     transform="translate(-42.882913,-74.588768)">
    <g
       id="g4"
       transform="matrix(1.0722887,0,0,1.0722887,22.423548,19.942154)">
      <path
         style="fill:#000000;stroke-width:0.228451"
         d="M 118.71972,104.92782 C 96.559389,78.759946 66.424806,78.74521 42.882913,111.84373 50.832537,60.063854 114.09479,67.205352 118.71972,104.92782 Z"
         id="path2"
         sodipodi:nodetypes="ccc" />
      <path
         style="fill:#000000;stroke-width:0.160702"
         d="m 112.57847,118.86185 c -10.60055,7.19726 -15.860484,3.0969 -21.485542,0.66229 -2.707621,-1.1719 -4.773614,3.29827 -5.09229,2.73213 C 80.421692,112.3451 90.146798,92.071037 108.91587,97.184445 94.199789,89.908026 81.954415,92.656219 75.9046,108.26367 71.131611,112.57542 68.315723,100.22162 81.840658,88.275739 67.789015,89.048402 59.496751,106.34889 62.981856,113.1297 50.765697,108.53948 67.39335,92.940382 64.422073,94.147121 45.640342,101.77503 46.303036,131.57379 49.159521,135.05417 c 5.994173,7.30338 12.921072,15.34408 28.051661,17.91492 18.029061,3.06332 39.833968,-9.0675 38.418048,-31.90679 z"
         id="path3"
         sodipodi:nodetypes="cssccccssscc" />
      <path
         id="path1"
         style="stroke-width:0.264583"
         d="m 121.61141,111.42657 a 12.238008,12.238008 0 0 1 -12.23801,12.238 12.238008,12.238008 0 0 1 -12.237994,-12.238 12.238008,12.238008 0 0 1 12.237994,-12.238007 12.238008,12.238008 0 0 1 12.23801,12.238007 z" />
    </g>
  </g>
</svg>
